<?xml version="1.0" encoding="utf-8"?>
<!-- Generator: Adobe Illustrator 22.1.0, SVG Export Plug-In . SVG Version: 6.00 Build 0)  -->
<svg version="1.1" id="图层_1" xmlns="http://www.w3.org/2000/svg" xmlns:xlink="http://www.w3.org/1999/xlink" x="0px" y="0px"
	 viewBox="0 0 1133.9 1133.9" style="enable-background:new 0 0 1133.9 1133.9;" xml:space="preserve">
<style type="text/css">
	.st0{fill:url(#SVGID_1_);}
	.st1{fill:url(#SVGID_2_);}
	.st2{fill:url(#SVGID_3_);}
	.st3{fill:url(#SVGID_4_);}
	.st4{fill:url(#SVGID_5_);}
	.st5{fill:url(#SVGID_6_);}
	.st6{fill:url(#SVGID_7_);}
	.st7{fill:url(#SVGID_8_);}
	.st8{fill:url(#SVGID_9_);}
	.st9{fill:url(#SVGID_10_);}
	.st10{fill:url(#SVGID_11_);}
	.st11{fill:url(#SVGID_12_);}
	.st12{fill:url(#SVGID_13_);}
	.st13{fill:url(#SVGID_14_);}
	.st14{fill:url(#SVGID_15_);}
	.st15{fill:url(#SVGID_16_);}
	.st16{fill:url(#SVGID_17_);}
	.st17{fill:url(#SVGID_18_);}
	.st18{fill:url(#SVGID_19_);}
	.st19{fill:url(#SVGID_20_);}
	.st20{fill:url(#SVGID_21_);}
	.st21{fill:url(#SVGID_22_);}
	.st22{fill:url(#SVGID_23_);}
	.st23{fill:url(#SVGID_24_);}
	.st24{fill:url(#SVGID_25_);}
	.st25{fill:url(#SVGID_26_);}
	.st26{fill:url(#SVGID_27_);}
	.st27{fill:url(#SVGID_28_);}
	.st28{fill:url(#SVGID_29_);}
	.st29{fill:url(#SVGID_30_);}
	.st30{fill:url(#SVGID_31_);}
	.st31{fill:url(#SVGID_32_);}
	.st32{fill:url(#SVGID_33_);}
	.st33{fill:url(#SVGID_34_);}
	.st34{fill:url(#SVGID_35_);}
	.st35{fill:url(#SVGID_36_);}
	.st36{fill:url(#SVGID_37_);}
	.st37{fill:url(#SVGID_38_);}
	.st38{fill:url(#SVGID_39_);}
	.st39{fill:url(#SVGID_40_);}
	.st40{fill:url(#SVGID_41_);}
	.st41{fill:url(#SVGID_42_);}
	.st42{fill:url(#SVGID_43_);}
	.st43{fill:url(#SVGID_44_);}
	.st44{fill:url(#SVGID_45_);}
	.st45{fill:url(#SVGID_46_);}
	.st46{fill:url(#SVGID_47_);}
	.st47{fill:url(#SVGID_48_);}
	.st48{fill:url(#SVGID_49_);}
	.st49{fill:url(#SVGID_50_);}
	.st50{fill:url(#SVGID_51_);}
	.st51{fill:url(#SVGID_52_);}
	.st52{fill:url(#SVGID_53_);}
	.st53{fill:url(#SVGID_54_);}
	.st54{fill:url(#SVGID_55_);}
	.st55{fill:url(#SVGID_56_);}
	.st56{fill:url(#SVGID_57_);}
	.st57{fill:url(#SVGID_58_);}
	.st58{fill:url(#SVGID_59_);}
	.st59{fill:url(#SVGID_60_);}
	.st60{fill:url(#SVGID_61_);}
	.st61{fill:url(#SVGID_62_);}
	.st62{fill:url(#SVGID_63_);}
	.st63{fill:url(#SVGID_64_);}
	.st64{fill:url(#SVGID_65_);}
	.st65{fill:url(#SVGID_66_);}
	.st66{fill:url(#SVGID_67_);}
	.st67{fill:url(#SVGID_68_);}
	.st68{fill:url(#SVGID_69_);}
	.st69{fill:url(#SVGID_70_);}
	.st70{fill:url(#SVGID_71_);}
	.st71{fill:url(#SVGID_72_);}
	.st72{fill:url(#SVGID_73_);}
	.st73{fill:url(#SVGID_74_);}
	.st74{fill:url(#SVGID_75_);}
	.st75{fill:url(#SVGID_76_);}
	.st76{fill:url(#SVGID_77_);}
</style>
<g>
	<g>
		<linearGradient id="SVGID_1_" gradientUnits="userSpaceOnUse" x1="666.428" y1="369.4383" x2="354.7737" y2="691.3389">
			<stop  offset="0" style="stop-color:#90278E"/>
			<stop  offset="1" style="stop-color:#007FC6"/>
		</linearGradient>
		<path class="st0" d="M291.4,775.1v-47.6h31.2v9.2H302v8.5h14v9.2h-14v20.7H291.4z"/>
		<linearGradient id="SVGID_2_" gradientUnits="userSpaceOnUse" x1="689.0969" y1="391.3856" x2="377.4425" y2="713.2862">
			<stop  offset="0" style="stop-color:#90278E"/>
			<stop  offset="1" style="stop-color:#007FC6"/>
		</linearGradient>
		<path class="st1" d="M328.1,727.5h13.7c3.9,0,6.7,0.2,8.6,0.6c1.9,0.4,3.5,1,4.8,1.9c1.9,1.3,3.5,3.2,4.5,5.6
			c1.1,2.4,1.6,5.2,1.6,8.4v14.6c0,3.2-0.5,6-1.6,8.5c-1.1,2.4-2.6,4.3-4.5,5.6c-1.3,0.9-3,1.5-5,1.9c-2,0.4-4.8,0.6-8.4,0.6h-13.7
			V727.5z M338.6,765.9h2.4c3.4,0,5.9-0.7,7.4-2.2s2.2-4,2.2-7.4v-10c0-3.5-0.7-5.9-2.2-7.4c-1.5-1.5-3.9-2.2-7.4-2.2h-2.4V765.9z"
			/>
		<linearGradient id="SVGID_3_" gradientUnits="userSpaceOnUse" x1="712.6569" y1="414.1957" x2="401.0025" y2="736.0963">
			<stop  offset="0" style="stop-color:#90278E"/>
			<stop  offset="1" style="stop-color:#007FC6"/>
		</linearGradient>
		<path class="st2" d="M383.3,727.5v29.7c0,3.9,0.5,6.5,1.4,7.8c0.9,1.3,2.6,2,5.1,2c2.5,0,4.2-0.7,5.1-2c0.9-1.3,1.4-3.9,1.4-7.8
			v-29.7h10.6v32.2c0,5.6-1.4,9.8-4.2,12.5c-2.8,2.7-7.1,4.1-12.9,4.1c-5.7,0-10-1.4-12.8-4.1c-2.8-2.7-4.2-6.9-4.2-12.5v-32.2
			H383.3z"/>
		<linearGradient id="SVGID_4_" gradientUnits="userSpaceOnUse" x1="745.7635" y1="446.2485" x2="434.1091" y2="768.1491">
			<stop  offset="0" style="stop-color:#90278E"/>
			<stop  offset="1" style="stop-color:#007FC6"/>
		</linearGradient>
		<path class="st3" d="M437.7,775.1v-47.6h15.7c5.4,0,9.4,1,12.1,3s3.9,5,3.9,9.1c0,2.6-0.5,4.7-1.6,6.4c-1.1,1.7-2.7,3-5.1,4.1
			c2.5,0.8,4.4,2.2,5.7,4.1c1.3,1.9,1.9,4.3,1.9,7.3c0,4.6-1.4,8.1-4.1,10.3c-2.7,2.2-6.9,3.4-12.6,3.4H437.7z M448.2,734.9v11.8
			h4.2c2.1,0,3.7-0.5,4.8-1.5c1-1,1.6-2.5,1.6-4.4c0-2-0.5-3.5-1.5-4.5c-1-0.9-2.6-1.4-4.8-1.4H448.2z M448.2,754.1v13.3h4.6
			c2.4,0,4.2-0.5,5.3-1.6c1.1-1.1,1.7-2.8,1.7-5c0-2.2-0.6-3.9-1.7-5c-1.1-1.1-2.9-1.6-5.3-1.6H448.2z"/>
		<linearGradient id="SVGID_5_" gradientUnits="userSpaceOnUse" x1="769.0863" y1="468.8289" x2="457.4319" y2="790.7295">
			<stop  offset="0" style="stop-color:#90278E"/>
			<stop  offset="1" style="stop-color:#007FC6"/>
		</linearGradient>
		<path class="st4" d="M479.9,775.1v-47.6h10.6v38.4h20.8v9.2H479.9z"/>
		<linearGradient id="SVGID_6_" gradientUnits="userSpaceOnUse" x1="787.1868" y1="486.3532" x2="475.5324" y2="808.2538">
			<stop  offset="0" style="stop-color:#90278E"/>
			<stop  offset="1" style="stop-color:#007FC6"/>
		</linearGradient>
		<path class="st5" d="M514.5,747.1c0-4.9,0.3-8.4,1-10.7c0.6-2.2,1.7-4.1,3.3-5.7c1.4-1.4,3.1-2.5,5.1-3.3s4.3-1.1,6.8-1.1
			c2.5,0,4.8,0.4,6.8,1.1c2,0.8,3.8,1.8,5.2,3.3c1.5,1.6,2.6,3.5,3.3,5.7s1,5.8,1,10.7v8.4c0,4.9-0.3,8.4-1,10.7s-1.7,4.1-3.3,5.7
			c-1.4,1.4-3.1,2.5-5.2,3.3c-2,0.8-4.3,1.1-6.8,1.1c-2.5,0-4.8-0.4-6.8-1.1c-2-0.8-3.7-1.8-5.1-3.3c-1.5-1.6-2.6-3.5-3.3-5.7
			c-0.6-2.2-1-5.8-1-10.7V747.1z M536.1,757.3v-12c0-4.1-0.4-6.7-1.2-8c-0.8-1.2-2.2-1.8-4.3-1.8c-2.1,0-3.5,0.6-4.3,1.8
			c-0.8,1.2-1.2,3.9-1.2,8v12c0,4.1,0.4,6.7,1.2,8c0.8,1.2,2.2,1.8,4.3,1.8c2.1,0,3.5-0.6,4.3-1.8
			C535.7,764,536.1,761.4,536.1,757.3z"/>
		<linearGradient id="SVGID_7_" gradientUnits="userSpaceOnUse" x1="809.6008" y1="508.0538" x2="497.9464" y2="829.9544">
			<stop  offset="0" style="stop-color:#90278E"/>
			<stop  offset="1" style="stop-color:#007FC6"/>
		</linearGradient>
		<path class="st6" d="M557.9,747.1c0-4.9,0.3-8.4,1-10.7c0.6-2.2,1.7-4.1,3.3-5.7c1.4-1.4,3.1-2.5,5.1-3.3s4.3-1.1,6.8-1.1
			c4.6,0,8.4,1.3,11.4,3.8c3,2.6,4.5,5.7,4.5,9.4v2.9h-10.5c-0.1-2.4-0.6-4.2-1.4-5.3c-0.9-1.1-2.2-1.7-4.1-1.7
			c-2.1,0-3.5,0.6-4.3,1.7c-0.8,1.1-1.2,3.8-1.2,8.2v12c0,4.1,0.4,6.8,1.2,8c0.8,1.2,2.2,1.8,4.3,1.8c1.9,0,3.3-0.6,4.2-1.8
			c0.8-1.2,1.3-3.1,1.3-5.9v-0.7H590v3.2c0,4.3-1.5,7.7-4.4,10.4s-6.8,4-11.6,4c-2.5,0-4.8-0.4-6.8-1.1c-2-0.8-3.7-1.8-5.1-3.3
			c-1.5-1.6-2.6-3.5-3.3-5.7c-0.6-2.2-1-5.8-1-10.7V747.1z"/>
		<linearGradient id="SVGID_8_" gradientUnits="userSpaceOnUse" x1="833.8289" y1="531.5107" x2="522.1745" y2="853.4114">
			<stop  offset="0" style="stop-color:#90278E"/>
			<stop  offset="1" style="stop-color:#007FC6"/>
		</linearGradient>
		<path class="st7" d="M601.5,775.1v-47.6h10.6v47.6H601.5z M612.6,750.3l14.3-22.8h11.2l-14.2,22l16.6,25.6h-12.4L612.6,750.3z"/>
		<linearGradient id="SVGID_9_" gradientUnits="userSpaceOnUse" x1="856.2346" y1="553.2032" x2="544.5801" y2="875.1038">
			<stop  offset="0" style="stop-color:#90278E"/>
			<stop  offset="1" style="stop-color:#007FC6"/>
		</linearGradient>
		<path class="st8" d="M648.2,747.1c0-4.9,0.3-8.4,1-10.7c0.6-2.2,1.7-4.1,3.3-5.7c1.4-1.4,3.1-2.5,5.1-3.3c2-0.8,4.3-1.1,6.8-1.1
			c4.6,0,8.4,1.3,11.4,3.8c3,2.6,4.5,5.7,4.5,9.4v2.9h-10.5c-0.1-2.4-0.6-4.2-1.4-5.3c-0.9-1.1-2.2-1.7-4.1-1.7
			c-2.1,0-3.5,0.6-4.3,1.7c-0.8,1.1-1.2,3.8-1.2,8.2v12c0,4.1,0.4,6.8,1.2,8c0.8,1.2,2.2,1.8,4.3,1.8c1.9,0,3.3-0.6,4.2-1.8
			s1.3-3.1,1.3-5.9v-0.7h10.5v3.2c0,4.3-1.5,7.7-4.4,10.4s-6.8,4-11.6,4c-2.5,0-4.8-0.4-6.8-1.1c-2-0.8-3.7-1.8-5.1-3.3
			c-1.5-1.6-2.6-3.5-3.3-5.7c-0.6-2.2-1-5.8-1-10.7V747.1z"/>
		<linearGradient id="SVGID_10_" gradientUnits="userSpaceOnUse" x1="879.5195" y1="575.747" x2="567.8651" y2="897.6476">
			<stop  offset="0" style="stop-color:#90278E"/>
			<stop  offset="1" style="stop-color:#007FC6"/>
		</linearGradient>
		<path class="st9" d="M692.1,775.1v-47.6h10.6v17.8h13.8v-17.8H727v47.6h-10.6v-20.6h-13.8v20.6H692.1z"/>
		<linearGradient id="SVGID_11_" gradientUnits="userSpaceOnUse" x1="906.3547" y1="601.728" x2="594.7003" y2="923.6286">
			<stop  offset="0" style="stop-color:#90278E"/>
			<stop  offset="1" style="stop-color:#007FC6"/>
		</linearGradient>
		<path class="st10" d="M764.4,775.1l-2.5-9.5h-14.3l-2.5,9.5h-10.2l13.7-47.6h12.5l13.7,47.6H764.4z M749.6,757.5h10.2l-5.1-21.5
			L749.6,757.5z"/>
		<linearGradient id="SVGID_12_" gradientUnits="userSpaceOnUse" x1="920.5601" y1="615.4812" x2="608.9056" y2="937.3818">
			<stop  offset="0" style="stop-color:#90278E"/>
			<stop  offset="1" style="stop-color:#007FC6"/>
		</linearGradient>
		<path class="st11" d="M778.4,775.1v-4.5h5.4v-38.9h-5.4v-4.2h21.4v4.2h-5.5v38.9h5.5v4.5H778.4z"/>
		<linearGradient id="SVGID_13_" gradientUnits="userSpaceOnUse" x1="939.2344" y1="633.5612" x2="627.58" y2="955.4617">
			<stop  offset="0" style="stop-color:#90278E"/>
			<stop  offset="1" style="stop-color:#007FC6"/>
		</linearGradient>
		<path class="st12" d="M808.1,775.1v-47.6h10.1l15.2,28.9l-0.2-28.9h9.2v47.6h-8.6L817,742.9l0.2,32.2H808.1z"/>
	</g>
	<g>
		<linearGradient id="SVGID_14_" gradientUnits="userSpaceOnUse" x1="641.1831" y1="344.9969" x2="329.5287" y2="666.8975">
			<stop  offset="0" style="stop-color:#90278E"/>
			<stop  offset="1" style="stop-color:#007FC6"/>
		</linearGradient>
		<polygon class="st13" points="546.8,508 592.3,480.6 518,438.3 565.1,411.2 641.6,455.3 686.1,427.4 564,357.5 427.1,437.3 
			427.1,602.1 471.6,626.5 471.6,465.1 471.7,465 		"/>
		<linearGradient id="SVGID_15_" gradientUnits="userSpaceOnUse" x1="725.1469" y1="426.288" x2="413.4924" y2="748.1886">
			<stop  offset="0" style="stop-color:#90278E"/>
			<stop  offset="1" style="stop-color:#007FC6"/>
		</linearGradient>
		<polygon class="st14" points="659.7,466.8 659.7,574.4 568.4,626.5 541.8,613.3 541.8,585.6 567.7,599.3 639.2,556.5 639.2,507 
			565.4,549 496.6,506.7 496.6,641.3 565.4,678.8 706.7,601 706.7,438.8 		"/>
	</g>
</g>
</svg>
